<svg width="15" height="15" viewBox="0 0 15 15" fill="none" xmlns="http://www.w3.org/2000/svg">
<g opacity="0.6">
<path d="M13.9444 13.0491H0.603115C0.494826 13.0491 0.386536 13.1574 0.386536 13.2657C0.386536 13.8937 0.906327 14.4135 1.53441 14.4135H13.0348C13.6629 14.4135 14.1827 13.8937 14.1827 13.2657C14.161 13.1574 14.0744 13.0491 13.9444 13.0491Z" fill="#73738D"/>
<path d="M13.0998 9.56179C12.6233 9.21527 11.9302 9.17195 11.3888 9.43185C10.8473 9.69174 10.1976 9.69174 9.63447 9.43185C9.17966 9.21527 8.59489 9.21527 8.14007 9.43185C7.59862 9.69174 6.94888 9.69174 6.38577 9.43185C5.93096 9.21527 5.34619 9.21527 4.89137 9.43185C4.34992 9.69174 3.70018 9.69174 3.13708 9.43185C2.61729 9.19361 1.96755 9.21527 1.49107 9.51848C1.46941 9.51848 1.44775 9.54014 1.44775 9.56179V12.6156H13.0998V9.56179Z" fill="#73738D"/>
<path d="M3.35367 9.04232C3.78683 9.23724 4.30662 9.23724 4.71812 9.04232C5.30289 8.76077 6.0176 8.76077 6.58071 9.04232C7.01387 9.23724 7.53366 9.23724 7.94516 9.04232C8.52992 8.76077 9.24464 8.76077 9.8294 9.04232C10.2626 9.23724 10.7824 9.23724 11.1939 9.04232C11.7786 8.76077 12.515 8.76077 13.0781 9.06398V8.78242C13.0781 7.80782 12.2768 7.00647 11.3021 7.00647H3.24538C2.27077 7.00647 1.46942 7.80782 1.46942 8.78242V9.06398C2.03253 8.78242 2.74724 8.76077 3.35367 9.04232Z" fill="#73738D"/>
<path d="M10.6524 5.0572C10.6524 4.62404 10.3059 4.25586 9.85109 4.25586C9.41793 4.25586 9.04974 4.60239 9.04974 5.0572V6.57326H10.6524V5.0572Z" fill="#73738D"/>
<path d="M5.49783 5.0572C5.49783 4.62404 5.12965 4.25586 4.69649 4.25586C4.26333 4.25586 3.89514 4.60239 3.89514 5.0572V6.57326H5.49783V5.0572Z" fill="#73738D"/>
<path d="M8.0751 4.12593C8.0751 3.69277 7.70692 3.32458 7.27376 3.32458C6.8406 3.32458 6.47241 3.69277 6.47241 4.12593V6.57328H8.0751V4.12593Z" fill="#73738D"/>
<path d="M9.8511 3.69276C10.2843 3.69276 10.6308 3.34623 10.6308 2.91307C10.6308 2.56654 10.176 1.80851 10.0244 1.59193C9.98105 1.52696 9.91607 1.48364 9.8511 1.48364C9.78613 1.48364 9.69949 1.52696 9.67783 1.59193C9.52623 1.80851 9.07141 2.56654 9.07141 2.91307C9.07141 3.34623 9.41794 3.69276 9.8511 3.69276Z" fill="#73738D"/>
<path d="M4.6965 3.69276C5.12966 3.69276 5.47618 3.34623 5.47618 2.91307C5.47618 2.56654 5.02137 1.80851 4.86976 1.59193C4.82644 1.52696 4.76147 1.48364 4.6965 1.48364C4.63152 1.48364 4.54489 1.52696 4.52323 1.59193C4.37163 1.80851 3.91681 2.56654 3.91681 2.91307C3.91681 3.34623 4.26334 3.69276 4.6965 3.69276Z" fill="#73738D"/>
<path d="M7.27377 2.76148C7.70693 2.76148 8.05345 2.41495 8.05345 1.9818C8.05345 1.63527 7.59864 0.898896 7.44703 0.660658C7.42537 0.595684 7.33874 0.552368 7.27377 0.552368C7.20879 0.552368 7.12216 0.595684 7.1005 0.660658C6.9489 0.877238 6.49408 1.63527 6.49408 1.9818C6.49408 2.3933 6.84061 2.76148 7.27377 2.76148Z" fill="#73738D"/>
</g>
</svg>
