<svg width="13" height="12" viewBox="0 0 13 12" fill="none" xmlns="http://www.w3.org/2000/svg">
<path d="M7.68695 7.01635V7.12057C7.68695 7.90218 7.04864 8.54049 6.26703 8.54049C5.48542 8.54049 4.8471 7.90218 4.8471 7.12057V7.01635L0.339821 6.14356C0.248633 6.13053 0.157446 6.10448 0.0792847 6.05237V9.98647C0.0792847 10.9505 0.860894 11.7321 1.82488 11.7321H10.7222C11.6862 11.7321 12.4678 10.9505 12.4678 9.98647V6.05237C12.3896 6.09145 12.2984 6.1175 12.2073 6.14356L7.68695 7.01635Z" fill="#73738D"/>
<path d="M10.7352 2.52222H9.14595V1.87087C9.14595 0.867809 8.32526 0.0471191 7.3222 0.0471191H5.21185C4.20879 0.0471191 3.3881 0.867809 3.3881 1.87087V2.52222H1.79883C0.847867 2.52222 0.0792847 3.2908 0.0792847 4.24176V4.97126C0.0792847 5.20574 0.248633 5.40114 0.470089 5.45325L4.8471 6.29999C4.86013 5.53141 5.48542 4.91915 6.26702 4.91915C7.03561 4.91915 7.67392 5.53141 7.68695 6.29999L12.0509 5.45325C12.2854 5.40114 12.4548 5.20574 12.4548 4.97126V4.22873C12.4548 3.2908 11.6862 2.52222 10.7352 2.52222ZM4.72986 1.85785C4.72986 1.59731 4.95132 1.38888 5.19883 1.38888H7.3222C7.58273 1.38888 7.79116 1.61034 7.79116 1.85785V2.50919H4.72986V1.85785Z" fill="#73738D"/>
<path d="M6.98385 7.12015V6.33855C6.98385 5.94774 6.65818 5.62207 6.26738 5.62207C5.87657 5.62207 5.5509 5.94774 5.5509 6.33855V7.12015C5.5509 7.51096 5.87657 7.83663 6.26738 7.83663C6.65818 7.83663 6.98385 7.51096 6.98385 7.12015Z" fill="#73738D"/>
</svg>
