<svg width="13" height="14" viewBox="0 0 13 14" fill="none" xmlns="http://www.w3.org/2000/svg">
<path opacity="0.6" d="M6.31627 0.848328C2.86075 0.848328 0.0787659 3.6596 0.0787659 7.08583C0.0787659 10.5413 2.89003 13.3233 6.31627 13.3233C9.77178 13.3233 12.5538 10.5121 12.5538 7.08583C12.5538 3.63031 9.77178 0.848328 6.31627 0.848328ZM9.09825 6.47086L6.49197 9.07714C6.31627 9.25285 6.05271 9.36998 5.81844 9.36998C5.58416 9.36998 5.32061 9.28213 5.1449 9.07714L3.53428 7.46652C3.15359 7.08583 3.15359 6.47086 3.53428 6.09017C3.91497 5.70948 4.52994 5.70948 4.91063 6.09017L5.84772 7.02726L7.75118 5.1238C8.13188 4.7431 8.74684 4.7431 9.12753 5.1238C9.47894 5.4752 9.47894 6.09017 9.09825 6.47086Z" fill="#73738D"/>
</svg>
